<?xml version="1.0" encoding="UTF-8"?>
<svg width="41px" height="64px" viewBox="0 0 41 64" version="1.1" xmlns="http://www.w3.org/2000/svg" xmlns:xlink="http://www.w3.org/1999/xlink">
    <!-- Generator: Sketch 54.1 (76490) - https://sketchapp.com -->
    <title>flamingo</title>
    <desc>Created with Sketch.</desc>
    <g id="Page-1" stroke="none" stroke-width="1" fill="none" fill-rule="evenodd">
        <g id="Mobile-Splash-Page" transform="translate(-16.000000, -110.000000)" fill="#D8328B" fill-rule="nonzero">
            <g id="logo" transform="translate(16.000000, 110.000000)">
                <g id="flamingo">
                    <path d="M40.3911111,7.60035556 L40.1528889,6.8672 C41.2017778,3.45457778 38.3267556,0 34.1184,0 L32.9400889,0 C28.1728,0 24.7324444,4.56462222 26.0451556,9.14702222 L29.9029333,22.6133333 C30.2919111,23.9715556 29.2721778,25.3248 27.8592,25.3248 C26.6851556,25.3248 25.7329778,24.3733333 25.7329778,23.1985778 L25.7329778,21.664 C25.7329778,16.9230222 21.8894222,13.0794667 17.1484444,13.0794667 C16.9834667,13.0794667 16.2780444,13.1242667 16.1244444,13.1420444 C7.53564444,14.0039111 0.625777778,22.0195556 0.625777778,31.1544889 C0.625777778,33.0289778 0.908088889,34.8366222 1.4336,36.5376 L8.02488889,31.0407111 L14.4554667,31.0407111 L4.86257778,39.04 C4.55111111,39.2995556 4.43448889,39.7304889 4.57244444,40.1123556 C4.7104,40.4935111 5.07591111,40.7502222 5.48195556,40.7502222 L17.8858667,45.0168889 L17.8894222,64 L27.5875556,64 C27.5875556,62.8949333 26.6929778,61.9996444 25.5886222,61.9996444 L19.6352,61.9996444 L19.6352,45.728 L25.6220444,47.8613333 L25.6220444,54.9866667 C26.7278222,54.9866667 27.6216889,54.0928 27.6216889,52.9898667 L27.6216889,48.1116444 C27.6216889,47.0072889 26.7264,46.1112889 25.6213333,46.1112889 L19.6352,44.0177778 L19.6344889,31.0407111 L27.9232,31.0407111 C32.2126222,31.0407111 35.3080889,26.9326222 34.1255111,22.8088889 L30.0096,8.46008889 C29.3824,6.27271111 31.0243556,4.09315556 33.2999111,4.09315556 C35.1900444,4.09315556 36.7224889,5.6256 36.7224889,7.51573333 L36.7224889,11.5093333 C36.7224889,12.1052444 36.6023111,12.6940444 36.3697778,13.2423111 L36.0625778,13.9662222 L37.6896,13.3255111 C39.9637333,12.4316444 41.1463111,9.92284444 40.3911111,7.60035556 Z M7.64302222,39.0001778 L17.1882667,31.0407111 L17.8858667,31.0407111 L17.8858667,43.2668444 L7.64302222,39.0001778 Z" id="Shape"></path>
                </g>
            </g>
        </g>
    </g>
</svg>