<svg width="205" height="64" xmlns="http://www.w3.org/2000/svg"><g fill-rule="nonzero" fill="none"><path d="M40.391 7.6l-.238-.733C41.202 3.455 38.327 0 34.118 0H32.94c-4.767 0-8.208 4.565-6.895 9.147l3.858 13.466a2.126 2.126 0 1 1-4.17.586v-1.535a8.585 8.585 0 0 0-8.585-8.585c-.165 0-.87.045-1.024.063C7.536 14.004.626 22.02.626 31.154c0 1.875.282 3.683.808 5.384l6.59-5.497h6.431L4.863 39.04a.97.97 0 0 0-.29 1.072.97.97 0 0 0 .909.638l12.404 4.267L17.889 64h9.699a2 2 0 0 0-2-2h-5.953V45.728l5.987 2.133v7.126c1.106 0 2-.894 2-1.997v-4.878a2 2 0 0 0-2-2l-5.987-2.094V31.04h8.288c4.29 0 7.385-4.108 6.203-8.232L30.01 8.46a3.423 3.423 0 1 1 6.712-.944v3.993c0 .596-.12 1.185-.352 1.733l-.307.724 1.627-.64A4.616 4.616 0 0 0 40.39 7.6zM7.643 39l9.545-7.96h.698v12.227L7.643 39z" fill="#D8328B"/><path d="M57.032 41.288c-5.208 0-9.096-3.624-9.096-8.688s3.888-8.688 9.12-8.688c2.904 0 5.328 1.056 6.912 2.976l-2.496 2.304c-1.128-1.296-2.544-1.968-4.224-1.968-3.144 0-5.376 2.208-5.376 5.376s2.232 5.376 5.376 5.376c1.68 0 3.096-.672 4.224-1.992l2.496 2.304c-1.584 1.944-4.008 3-6.936 3zm17.688 0c-5.304 0-9.192-3.696-9.192-8.688 0-4.992 3.888-8.688 9.192-8.688 5.28 0 9.192 3.672 9.192 8.688S80 41.288 74.72 41.288zm0-3.312c3 0 5.256-2.184 5.256-5.376s-2.256-5.376-5.256-5.376c-3 0-5.256 2.184-5.256 5.376s2.256 5.376 5.256 5.376zm17.64 3.312c-2.664 0-5.352-.792-6.84-1.944l1.32-2.928c1.416 1.032 3.528 1.752 5.544 1.752 2.304 0 3.24-.768 3.24-1.8 0-3.144-9.768-.984-9.768-7.224 0-2.856 2.304-5.232 7.08-5.232 2.112 0 4.272.504 5.832 1.488l-1.2 2.952c-1.56-.888-3.168-1.32-4.656-1.32-2.304 0-3.192.864-3.192 1.92 0 3.096 9.768.96 9.768 7.128 0 2.808-2.328 5.208-7.128 5.208zm21.192-6.6c0 .144-.024.336-.024.528h-10.56c.192 2.64 2.208 4.392 4.968 4.392 1.536 0 2.904-.552 3.864-1.656l.96 1.104c-1.128 1.344-2.88 2.064-4.872 2.064-3.936 0-6.624-2.688-6.624-6.432s2.616-6.408 6.168-6.408 6.12 2.616 6.12 6.408zm-6.12-4.944c-2.448 0-4.248 1.728-4.464 4.2h8.952c-.216-2.472-2.016-4.2-4.488-4.2zm18.528-1.368h1.68L122.024 41h-1.752l-5.592-12.624h1.776l4.728 10.752 4.776-10.752zm15.096 6.312c0 .144-.024.336-.024.528h-10.56c.192 2.64 2.208 4.392 4.968 4.392 1.536 0 2.904-.552 3.864-1.656l.96 1.104c-1.128 1.344-2.88 2.064-4.872 2.064-3.936 0-6.624-2.688-6.624-6.432s2.616-6.408 6.168-6.408 6.12 2.616 6.12 6.408zm-6.12-4.944c-2.448 0-4.248 1.728-4.464 4.2h8.952c-.216-2.472-2.016-4.2-4.488-4.2zm16.032-1.464c3.072 0 5.184 1.776 5.184 5.4V41h-1.704v-7.152c0-2.664-1.392-4.032-3.792-4.032-2.712 0-4.416 1.68-4.416 4.56V41h-1.704V28.376h1.632v2.328c.912-1.536 2.616-2.424 4.8-2.424zm15.864 10.728l.6 1.224c-.672.6-1.68.888-2.664.888-2.376 0-3.696-1.344-3.696-3.672v-7.632h-2.256v-1.44h2.256v-2.76h1.704v2.76h3.84v1.44h-3.84v7.536c0 1.488.768 2.304 2.184 2.304.696 0 1.392-.216 1.872-.648zm7.08 2.112c-2.088 0-4.104-.672-5.136-1.56l.768-1.344c1.008.792 2.712 1.416 4.488 1.416 2.4 0 3.384-.816 3.384-2.064 0-3.288-8.184-.696-8.184-5.688 0-2.064 1.776-3.6 4.992-3.6 1.632 0 3.408.456 4.464 1.176l-.744 1.368c-1.104-.768-2.424-1.08-3.72-1.08-2.28 0-3.288.888-3.288 2.088 0 3.408 8.184.84 8.184 5.688 0 2.184-1.92 3.6-5.208 3.6zm8.52 0c-.696 0-1.272-.576-1.272-1.32a1.27 1.27 0 0 1 1.272-1.296 1.29 1.29 0 0 1 1.296 1.296c0 .744-.6 1.32-1.296 1.32zm5.784-15.504a1.234 1.234 0 0 1-1.248-1.224c0-.648.552-1.2 1.248-1.2s1.248.528 1.248 1.176c0 .696-.528 1.248-1.248 1.248zM187.352 41V28.376h1.704V41h-1.704zm17.472-6.312c0 .144-.024.336-.024.528h-10.56c.192 2.64 2.208 4.392 4.968 4.392 1.536 0 2.904-.552 3.864-1.656l.96 1.104c-1.128 1.344-2.88 2.064-4.872 2.064-3.936 0-6.624-2.688-6.624-6.432s2.616-6.408 6.168-6.408 6.12 2.616 6.12 6.408zm-6.12-4.944c-2.448 0-4.248 1.728-4.464 4.2h8.952c-.216-2.472-2.016-4.2-4.488-4.2z" fill="#C6D85D"/></g></svg>