<svg width="36" height="36" xmlns="http://www.w3.org/2000/svg"><path d="M32.143 0H3.857A3.858 3.858 0 0 0 0 3.857v28.286A3.858 3.858 0 0 0 3.857 36h28.286A3.858 3.858 0 0 0 36 32.143V3.857A3.858 3.858 0 0 0 32.143 0zm-3.93 12.76c.016.226.016.459.016.684 0 6.967-5.303 14.994-14.994 14.994-2.99 0-5.762-.867-8.092-2.362.426.048.836.064 1.27.064 2.466 0 4.733-.836 6.54-2.25a5.277 5.277 0 0 1-4.925-3.656c.811.12 1.543.12 2.378-.097a5.27 5.27 0 0 1-4.219-5.175v-.064c.7.394 1.52.635 2.38.667a5.26 5.26 0 0 1-2.347-4.387c0-.98.257-1.88.715-2.66a14.964 14.964 0 0 0 10.864 5.512c-.747-3.576 1.929-6.476 5.143-6.476 1.519 0 2.885.634 3.85 1.663 1.188-.225 2.33-.667 3.342-1.27a5.257 5.257 0 0 1-2.314 2.901c1.06-.112 2.089-.41 3.037-.82a11.093 11.093 0 0 1-2.644 2.733z" fill="#C6D85D" fill-rule="nonzero"/></svg>