<?xml version="1.0" standalone="no"?>
<!DOCTYPE svg PUBLIC "-//W3C//DTD SVG 20010904//EN"
 "http://www.w3.org/TR/2001/REC-SVG-20010904/DTD/svg10.dtd">
<svg version="1.0" xmlns="http://www.w3.org/2000/svg"
 width="1024.000000pt" height="1024.000000pt" viewBox="0 0 1024.000000 1024.000000"
 preserveAspectRatio="xMidYMid meet">
<metadata>
Created by potrace 1.11, written by Peter Selinger 2001-2013
</metadata>
<g transform="translate(0.000000,1024.000000) scale(0.100000,-0.100000)"
fill="#000000" stroke="none">
<path d="M6915 10224 c-72 -13 -143 -32 -200 -53 -59 -22 -208 -101 -265 -140
-144 -99 -306 -293 -378 -451 -27 -60 -42 -98 -44 -110 0 -3 -9 -28 -19 -57
-10 -29 -20 -67 -23 -85 -3 -18 -8 -44 -12 -58 -14 -62 -10 -293 8 -381 10
-50 20 -94 22 -98 3 -4 8 -22 11 -39 3 -18 12 -51 20 -75 8 -23 21 -67 29 -97
26 -94 53 -190 91 -320 20 -69 38 -132 40 -140 2 -8 8 -30 14 -48 5 -18 11
-36 12 -40 1 -4 3 -11 5 -17 11 -32 145 -504 150 -525 3 -14 16 -62 30 -107
14 -45 27 -90 29 -100 2 -10 36 -128 75 -263 40 -135 74 -256 77 -270 2 -14 8
-34 13 -45 37 -93 45 -202 19 -276 -11 -30 -20 -58 -22 -63 -8 -33 -92 -112
-151 -143 -52 -27 -186 -44 -223 -28 -10 4 -24 9 -31 11 -29 6 -98 48 -127 77
-94 96 -105 136 -110 421 -3 127 -7 242 -9 256 -30 178 -51 246 -124 405 -20
44 -39 82 -43 85 -3 3 -8 12 -11 20 -8 21 -109 161 -149 206 -45 50 -105 108
-153 147 -21 18 -50 42 -64 55 -14 12 -28 22 -32 22 -4 0 -17 9 -30 20 -13 11
-29 20 -36 20 -7 0 -14 4 -16 9 -5 15 -163 90 -253 122 -86 29 -187 53 -285
66 -96 12 -323 7 -420 -11 -14 -2 -43 -7 -65 -10 -68 -9 -213 -41 -255 -57
-14 -4 -36 -10 -50 -13 -25 -4 -176 -58 -255 -91 -74 -30 -290 -139 -303 -152
-7 -7 -18 -13 -23 -13 -11 0 -233 -148 -268 -179 -13 -11 -27 -21 -30 -21 -6
0 -35 -25 -151 -128 -143 -129 -273 -270 -377 -409 -32 -43 -60 -80 -63 -83
-10 -10 -120 -180 -120 -186 0 -3 -8 -18 -19 -32 -21 -31 -140 -255 -139 -262
1 -3 -8 -23 -19 -45 -18 -35 -101 -253 -107 -280 -2 -5 -10 -36 -20 -67 -10
-32 -18 -61 -18 -65 -1 -5 -8 -28 -15 -53 -17 -57 -44 -184 -48 -230 -2 -19
-4 -35 -5 -35 -1 0 -6 -25 -15 -80 -20 -127 -27 -513 -12 -655 4 -36 9 -87 12
-115 3 -27 10 -72 15 -100 6 -27 15 -75 21 -105 6 -30 15 -66 20 -79 6 -13 8
-26 5 -28 -2 -3 4 -30 15 -60 10 -31 19 -64 19 -75 0 -10 3 -18 7 -18 6 0 73
48 83 60 7 8 127 108 174 145 21 17 56 47 78 68 22 20 43 37 47 37 3 0 22 15
41 33 19 18 58 50 85 72 28 22 55 45 60 51 6 6 46 40 90 75 44 35 95 78 115
95 19 18 73 63 120 100 83 68 108 89 143 121 16 15 68 17 533 17 l515 1 -35
-31 c-19 -17 -56 -48 -82 -70 -26 -21 -56 -47 -66 -57 -10 -9 -22 -17 -27 -17
-5 0 -11 -4 -13 -8 -1 -5 -59 -55 -128 -112 -117 -97 -146 -122 -189 -160 -9
-8 -37 -31 -61 -50 -25 -19 -47 -37 -50 -40 -4 -5 -103 -87 -203 -170 -19 -15
-23 -19 -98 -82 -24 -20 -78 -65 -119 -99 -41 -34 -80 -67 -87 -73 -7 -6 -18
-15 -25 -21 -16 -12 -189 -156 -204 -170 -6 -5 -22 -19 -36 -30 -152 -126
-168 -149 -162 -221 4 -52 38 -107 73 -121 14 -5 132 -45 261 -88 129 -43 241
-82 247 -88 7 -5 13 -7 13 -4 0 4 19 -1 43 -9 60 -22 548 -190 637 -220 41
-13 84 -29 95 -33 11 -5 101 -36 200 -70 260 -87 557 -190 563 -195 2 -3 4
-687 4 -1520 l1 -1516 777 0 777 0 -8 46 c-20 108 -81 191 -172 238 -56 28
-109 37 -207 36 -119 -1 -194 1 -202 6 -4 3 -8 2 -8 -3 0 -4 -29 -8 -65 -8
-36 0 -65 2 -65 5 0 4 -97 4 -110 -1 -3 -1 -9 -1 -14 0 -7 2 -59 2 -106 0 -8
0 -74 1 -146 2 -72 1 -135 -1 -141 -4 -5 -3 -14 -3 -20 1 -14 9 -15 2602 -1
2602 5 0 18 -5 29 -11 11 -6 28 -12 37 -14 9 -2 35 -11 57 -19 48 -18 289
-104 436 -155 58 -21 109 -40 115 -42 5 -3 29 -12 54 -19 25 -7 50 -17 55 -21
6 -3 34 -12 63 -20 28 -7 52 -16 52 -20 0 -4 10 -9 23 -11 l22 -3 3 -573 2
-572 33 5 c66 12 102 25 146 56 59 41 88 77 117 147 l23 57 -2 460 -2 460 -34
63 c-19 35 -51 77 -70 93 -54 44 -138 80 -191 81 -8 0 -73 20 -145 45 -71 25
-134 46 -140 47 -5 1 -14 4 -20 7 -5 4 -28 12 -50 18 -22 7 -49 16 -60 21 -11
5 -36 14 -55 20 -29 10 -180 63 -455 159 l-50 18 -2 1036 c-1 965 0 1037 15
1038 9 0 334 2 722 4 388 1 716 5 730 8 14 2 45 8 68 11 61 10 200 60 269 98
134 72 288 204 350 301 15 23 30 44 33 47 10 8 61 99 60 105 -1 3 5 16 13 28
25 40 58 140 78 237 14 73 18 125 15 225 -3 72 -7 139 -9 150 -16 65 -43 165
-74 268 -19 66 -36 126 -38 135 -2 10 -13 46 -24 82 -12 36 -23 74 -26 85 -4
23 -28 109 -80 285 -20 69 -38 132 -40 140 -20 74 -47 170 -55 190 -5 14 -12
40 -15 59 -3 19 -8 38 -11 42 -2 4 -16 47 -30 96 -64 220 -226 789 -229 803
-2 8 -10 35 -18 60 -8 25 -18 59 -23 75 -11 42 -11 45 -14 48 -1 1 -3 9 -5 17
-54 229 -4 418 151 566 51 49 173 119 224 128 14 3 45 9 70 13 124 24 267 -9
385 -89 33 -23 68 -51 79 -62 88 -99 130 -180 150 -284 13 -72 15 -797 2 -862
-11 -55 -27 -112 -42 -145 -43 -99 -53 -125 -49 -125 2 0 28 9 57 21 29 12 58
22 63 23 6 1 27 10 49 19 21 9 41 17 43 17 3 0 32 13 66 29 176 81 301 204
379 372 44 95 59 161 63 287 2 77 -4 139 -19 197 -18 67 -29 105 -40 129 -10
20 -11 38 -5 60 23 77 32 242 17 331 -15 90 -86 274 -110 283 -4 2 -8 8 -8 14
0 23 -135 171 -220 242 -61 51 -245 140 -335 162 -16 4 -34 8 -40 10 -120 34
-506 44 -660 18z m-2218 -4957 c5 -5 11 -1947 6 -1947 -3 0 -152 59 -188 75
-16 7 -46 20 -65 28 -19 9 -60 25 -90 37 -30 12 -68 28 -85 35 -16 8 -82 35
-145 61 -63 25 -139 57 -168 70 -29 13 -55 24 -57 24 -3 0 -27 9 -53 21 -26
12 -58 26 -72 31 -14 6 -34 14 -45 19 -11 5 -108 45 -215 89 -107 44 -204 84
-215 89 -11 5 -41 18 -67 30 -26 12 -50 21 -52 21 -2 0 -21 8 -42 17 -22 9
-45 18 -52 19 -35 6 -32 10 68 95 36 30 76 64 90 76 14 12 69 58 124 102 54
45 105 88 113 96 8 8 17 15 21 15 4 0 30 22 58 48 29 26 64 56 79 67 15 11 46
36 68 56 23 20 152 128 287 240 135 112 250 208 256 214 6 5 29 25 52 43 23
19 50 41 60 50 11 10 36 31 57 47 20 17 42 35 49 41 6 5 36 30 66 55 50 40 61
45 103 43 27 -1 51 -4 54 -7z"/>
</g>
</svg>
